<svg id="Layer_1" data-name="Layer 1" xmlns="http://www.w3.org/2000/svg" viewBox="0 0 687.57 283.26"><defs><style>.cls-1{fill:#fff;}</style></defs><path class="cls-1" d="M31.16,90.46a48.67,48.67,0,0,0,17.21,28.65,48.76,48.76,0,0,0,32,11.56,49.42,49.42,0,0,0,27.39-8,50.25,50.25,0,0,0,18.22-21l27.27,12.81a79.37,79.37,0,0,1-29.15,33.42,78.42,78.42,0,0,1-43.73,12.94,79.87,79.87,0,0,1-31.28-6.28A80,80,0,0,1,6.28,111.7a81.07,81.07,0,0,1,0-62.57A80,80,0,0,1,49.13,6.28,79.87,79.87,0,0,1,80.41,0,79.72,79.72,0,0,1,130,17.09a81.75,81.75,0,0,1,17.59,19.22A80.57,80.57,0,0,1,160.2,90.46ZM80.41,30.15A50.26,50.26,0,0,0,34.3,60.31h92.22A50.24,50.24,0,0,0,80.41,30.15Z"/><path class="cls-1" d="M349,155.8H318.81V80.41a50.77,50.77,0,0,0-3.89-19.6,51.07,51.07,0,0,0-26.76-26.76A50.12,50.12,0,0,0,233,44.86a52.64,52.64,0,0,0-10.81,16,51,51,0,0,0-3.89,19.6V155.8H188.14V80.41a79.92,79.92,0,0,1,6.29-31.28A80,80,0,0,1,237.27,6.28a81.07,81.07,0,0,1,62.57,0,80.08,80.08,0,0,1,42.85,42.85A79.91,79.91,0,0,1,349,80.41Z"/><circle class="cls-1" cx="284.7" cy="109.29" r="17.68"/><path class="cls-1" d="M607.16,0a80,80,0,0,1,31.28,6.28,80.08,80.08,0,0,1,42.85,42.85,81.07,81.07,0,0,1,0,62.57,80.1,80.1,0,0,1-42.85,42.84,81.07,81.07,0,0,1-62.57,0A80,80,0,0,1,533,111.7a80.95,80.95,0,0,1,0-62.57A80,80,0,0,1,575.87,6.28,80,80,0,0,1,607.16,0ZM556.9,80.41a50.92,50.92,0,0,0,3.89,19.6,52.69,52.69,0,0,0,10.81,16,50.63,50.63,0,0,0,55.16,10.8,52.55,52.55,0,0,0,16-10.8,50.71,50.71,0,0,0,10.68-16,49.79,49.79,0,0,0,0-39.2,48.82,48.82,0,0,0-10.68-16,52.77,52.77,0,0,0-16-10.81,50.81,50.81,0,0,0-19.6-3.9,50.12,50.12,0,0,0-19.6,3.9A50,50,0,0,0,556.9,80.41Z"/><path class="cls-1" d="M399.42,111.24c11.61,12.56,30.77,22.3,47.73,22.3,18.84,0,30.15-10.68,30.15-19.16,0-10-7.86-15.39-19.79-17.59L439,93.34C396.27,85.49,384.34,71.67,384.34,50,384.34,24.25,406,.39,444,.39c21,0,39.57,6.28,60.29,21L485.77,44.35c-16-13.5-30.14-17-40.82-17C430.82,27.39,417,34.3,417,46.55c0,9.1,7.22,13.82,19.78,16l33,6.28c27,5,40.2,17.9,40.2,40.51,0,22.3-18.22,51.19-64.38,51.19-25.75,0-47.73-9.11-68.46-26.69Z"/><path class="cls-1" d="M38.06,283.26q-15.41,0-25.73-10.58T2,246.59a36,36,0,0,1,10.34-26q10.34-10.63,26.24-10.64a38.73,38.73,0,0,1,15.65,2.84A42.77,42.77,0,0,1,66.33,221l-8,9.22q-9.52-8.82-19.85-8.82a21.66,21.66,0,0,0-16.77,7.3,27.38,27.38,0,0,0,.05,35.81,21.67,21.67,0,0,0,16.72,7.35,24.09,24.09,0,0,0,10.73-2.28,40.35,40.35,0,0,0,9.63-6.94l8,8.1a42.4,42.4,0,0,1-12.66,9.42A37.58,37.58,0,0,1,38.06,283.26Z"/><path class="cls-1" d="M165.61,272.52Q155.08,283.26,139,283.26t-26.55-10.64a37.44,37.44,0,0,1,.11-52q10.53-10.74,26.64-10.74t26.54,10.64a37.43,37.43,0,0,1-.1,52Zm-43.71-8a23.9,23.9,0,0,0,34.44,0,27,27,0,0,0-.1-35.81A22.59,22.59,0,0,0,139,221.36a22.31,22.31,0,0,0-17.17,7.3,27,27,0,0,0,.1,35.81Z"/><path class="cls-1" d="M218.5,282.05V211.13h11.55l38,49v-49H280.3v70.92H269.86l-39.1-50.46v50.46Z"/><path class="cls-1" d="M325.79,282.05V211.13h11.55l38,49v-49h12.26v70.92H377.15l-39.1-50.46v50.46Z"/><path class="cls-1" d="M433.08,282.05V211.13h52.58v11.14H445.54v18.44H481.1v11.15H445.54v19h40.63v11.15Z"/><path class="cls-1" d="M561.14,283.26q-15.4,0-25.74-10.58t-10.33-26.09a35.94,35.94,0,0,1,10.33-26q10.33-10.63,26.24-10.64a38.75,38.75,0,0,1,15.66,2.84A42.73,42.73,0,0,1,589.4,221l-8,9.22q-9.52-8.82-19.86-8.82a21.69,21.69,0,0,0-16.77,7.3,27.4,27.4,0,0,0,.06,35.81,21.63,21.63,0,0,0,16.71,7.35,24.16,24.16,0,0,0,10.74-2.28,40.35,40.35,0,0,0,9.63-6.94l8,8.1a42.66,42.66,0,0,1-12.66,9.42A37.58,37.58,0,0,1,561.14,283.26Z"/><path class="cls-1" d="M647.66,282.05V222.68H625.17V211.13h57.54v11.55H660.22v59.37Z"/></svg>
