<svg id="Layer_1" data-name="Layer 1" xmlns="http://www.w3.org/2000/svg" viewBox="0 0 833.33 285.2">
  <defs>
    <style>
      .cls-1 {
        fill: #fff;
      }

      .cls-2 {
        fill: #fff;
      }
    </style>
  </defs>
  <g>
    <g>
      <path class="cls-1" d="M101,251.53a.06.06,0,0,0,.06.06L83.42,269.25h-52V235.69c0-3.58-.43-7.22.18-10.77a73.45,73.45,0,0,1,2.76-9.74,150.63,150.63,0,0,1,9.86-23.06c4.4-8.83,8.77-17.62,14.44-29A38,38,0,0,0,65,141.15a39.93,39.93,0,0,0-6.28-20L37,76.71a49.33,49.33,0,0,1-4.67-13.35c-.79-4-1-47.79-.7-47.79q25.75,0,51.49-.06L100.65,33,73.14,60.54a42.22,42.22,0,0,0-9.86,23.18,42.73,42.73,0,0,0,5.55,24.82c3.52,6.12,8.8,10.58,13.83,15.41q8.19-8.15,16.33-16.32c-3.8-3.64-7.59-7.32-11.38-11L83.3,101c-.06,0-1.61-3-1.67-3.15a23.69,23.69,0,0,1-1.73-9,30.33,30.33,0,0,1,1.91-10.49,25,25,0,0,1,.91-2.52,12.79,12.79,0,0,1,1.91-2.43c1.67-2,3.62-3.7,5.44-5.58l6-6.19q6.06-6.15,12.08-12.35c.36-.39,4.37-4.46,4.37-4.46Q126.74,59,141,73.16a25.33,25.33,0,0,1,4.37,18.08,24.15,24.15,0,0,1-5.5,11.8l-27.67,27.67c-4.88-4.82-9.8-9.64-14.71-14.47Q91.74,122,86,127.71l15.08,14.53q-12.24,12.3-24.52,24.61c-2.85,2.88-5.79,5.37-7.61,9.07a52.88,52.88,0,0,0-3.07,7.65c-3.06,9.83-3.21,20.84.85,30.4a31.66,31.66,0,0,0,6.71,10c1.85,1.85,3.7,3.7,5.52,5.55q7,6.92,13.87,13.84Z"/>
      <path class="cls-1" d="M193.53,221.37c.81,4,1.06,47.82.69,47.82q-25.71,0-51.48.06l-17.51-17.51,27.52-27.52a41.36,41.36,0,0,0,4.31-48c-3.49-6.12-8.8-10.58-13.84-15.44Q135.07,169,126.9,177.1c3.79,3.68,7.61,7.35,11.41,11l4.3-4.31c.07,0,1.61,3,1.67,3.19a24.47,24.47,0,0,1,1.73,9,31,31,0,0,1-1.91,10.49c-.3.82-.55,1.73-.91,2.52a15.57,15.57,0,0,1-1.91,2.43c-1.67,2-3.64,3.7-5.43,5.55q-3,3.09-6,6.19l-12.1,12.38c-.37.36-4.34,4.43-4.34,4.46L84.94,211.57a25.19,25.19,0,0,1-4.37-18,24.07,24.07,0,0,1,5.49-11.8l27.64-27.67q7.38,7.23,14.75,14.44c3.82-3.82,7.64-7.65,11.46-11.44l-15.07-14.53q12.24-12.35,24.48-24.64c2.88-2.85,5.82-5.34,7.65-9a54.09,54.09,0,0,0,3-7.65c3.09-9.83,3.25-20.84-.85-30.43a30.53,30.53,0,0,0-6.71-10c-1.82-1.85-3.67-3.67-5.52-5.52-4.61-4.61-9.22-9.25-13.86-13.87-2.7-2.73-5.43-5.43-8.16-8.16,0,0-.06-.06-.06-.09l17.62-17.63h52V49.07c0,3.58.45,7.19-.16,10.77a71.56,71.56,0,0,1-2.76,9.71c-3.06,9.53-6.37,16-9.86,23.09-4.4,8.8-8.8,17.63-14.44,29a38.24,38.24,0,0,0-6.31,21.94,40.17,40.17,0,0,0,6.31,20q10.83,22.22,21.66,44.39A49.74,49.74,0,0,1,193.53,221.37Z"/>
    </g>
    <polygon class="cls-1" points="107.38 15.51 118.53 15.51 112.85 21.18 107.38 15.51"/>
    <polygon class="cls-1" points="118.53 269.28 107.38 269.28 113.06 263.6 118.53 269.28"/>
  </g>
  <path class="cls-1" d="M575.53,60.26a38.42,38.42,0,0,0-8.44,4.1c-.54.33-1.16,1.17-1.85.39-.52-.61.31-1.1.5-1.65s1-1,.4-1.66c-.41-.46-1.06-.22-1.57,0-5.24,1.77-10.32,0-15.45-.65-.41,0-.84-.11-.92-.57s.34-.66.71-.8c1-.39,2.1-.7,3.1-1.17,1.46-.68,3.2-.66,3.91-2.83.39-1.17,2.61-1.18,4-1.63,1.69-.55,1.59-1.17.44-2.22-3.27-3-6.49-6-9.72-9-.51-.47-1.39-.89-1.23-1.61.21-1,1.2-.46,1.82-.45,1.49,0,1.6-.55,1-1.72-1-2-2-3.94-2.92-5.92-.22-.46-.7-.94-.15-1.49s1,0,1.46.2q3.35,1.78,6.63,3.66c1.14.65,1.88.79,2-.88s1-1.2,1.82-.41c1.87,1.82,3.71,3.66,5.6,5.44.53.51.88,1.34,2.15,1.26-.61-1.84-1.19-3.59-1.76-5.34-.17-.52-.52-1.14,0-1.55s1,.19,1.37.5c1.12.86,1.42.27,1.31-.76-.23-2-.58-4.05-.81-6.07-.07-.65-.47-1.49.36-1.92s1.18.3,1.62.69c1.59,1.44,2.2.69,2.62-1,.65-2.59,1.38-5.16,2.16-7.72.21-.7.06-1.88,1-1.93s.84,1.16,1,1.83c.84,2.69,1.63,5.41,2.31,8.15.43,1.73,1.1,1.87,2.37.74.49-.43,1-1.21,1.81-.71.63.4.3,1.16.24,1.76-.2,1.95-.45,3.9-.71,5.84-.07.47-.26,1,.18,1.32s.85-.12,1.23-.32.68-.8,1.21-.47.15,1,0,1.48c-.4,1.84-1.65,3.48-1.54,5.45l.62.5,6.57-7c1.06-1.13,2-1.58,2.21.54.14,1.21.74,1.17,1.62.68,2.28-1.28,4.56-2.52,6.85-3.76.46-.25,1-.79,1.5-.34s.11,1.13-.15,1.68c-.94,1.9-1.85,3.82-2.82,5.71-.64,1.24-.56,1.92,1.07,1.84.59,0,1.44-.39,1.73.3s-.61,1.18-1.08,1.62c-3.29,3.07-6.58,6.12-9.93,9.12-1.31,1.18-1.24,1.71.52,2.28s3.6.8,4.81,3c.75,1.37,3.6,1.6,5.5,2.37.54.22,1.43.21,1.31,1.07s-.88.5-1.38.57c-5,.66-10.05,2.38-15.18.52-.42-.15-.95-.3-1.33.13s.11,1,.3,1.46,1.14,1.19.47,1.86-1.27-.2-1.85-.5c-2-1-4.06-2.11-6.06-3.21-1.64-.9-2.44-.87-2.33,1.4.17,3.45.13,6.92,0,10.37,0,1,1,2.88-1.07,2.92-2.38,0-1.15-2-1.19-3C575.44,68.65,575.53,64.57,575.53,60.26Z"/>
  <g>
    <path class="cls-2" d="M263.49,133.11V101.94a4.91,4.91,0,0,0-2.27-4.39,10.68,10.68,0,0,0-6.8-1.93c-3.09,0-4.94.69-6.38,1.93a4.73,4.73,0,0,0-2.06,4.39v86.37a5.08,5.08,0,0,0,2.06,4.53c1.44,1.24,3.29,1.79,6.38,1.79s5.15-.55,6.8-1.79a5.28,5.28,0,0,0,2.27-4.53V155.22H256.9v-7H274v40.24c0,3.84-2.47,6.73-6,8.79-3.71,2.19-6.8,3.29-13.39,3.29a41.54,41.54,0,0,1-8.65-.82,20.28,20.28,0,0,1-6.18-2.47,10.17,10.17,0,0,1-3.71-3.71c-1-1.51-.82-3.16-.82-5.08V101.94c0-1.92-.21-3.71.82-5.08A9.43,9.43,0,0,1,239.8,93,23.83,23.83,0,0,1,246,90.68a41.07,41.07,0,0,1,8.65-1c6.59,0,9.68,1.1,13.39,3.3,3.5,2.19,6,5.08,6,8.92v31.17Z"/>
    <path class="cls-2" d="M344.77,200.53l-2.47-18.81H328.71l-2.48,18.81H315.94l14.42-110h10.29l14.42,110Zm-15-25.68h11.74l-6-44.62Z"/>
    <path class="cls-2" d="M435.57,90.54h10.3v110h-10.3V147l-9.89,53.55h-10.5L405.29,147v53.55H395v-110h10.3l15.24,81.84Z"/>
    <path class="cls-2" d="M504.19,90.68c6.8,0,11.12,1.1,14.83,3.16,3.5,2.2,5.56,5.22,5.56,9.06v35c-.2,3.57-2.26,6.31-5.56,8.37l-.62.42.62.41c3.5,2.06,5.56,5.08,5.56,8.92v32.27c0,3.85-2.06,6.73-5.56,8.93-3.71,2.19-8,3.29-14.83,3.29H485.86V90.68Zm-8,53.14h8c2.88-.14,5.77-.69,7.42-1.92a5.66,5.66,0,0,0,2.26-3.57c0-.14.21-.83.21-1V102.9a5.67,5.67,0,0,0-2.47-4.53c-1.65-1.24-4.54-1.79-7.42-1.92h-8Zm8,50.81c2.88,0,5.77-.55,7.42-1.79a6.07,6.07,0,0,0,2.47-4.53V157a5.62,5.62,0,0,0-2.47-4.39c-1.65-1.24-4.12-1.79-7-1.92h-8.44v43.94Z"/>
    <path class="cls-2" d="M571.34,200.53v-110h10.3v110Z"/>
    <path class="cls-2" d="M667.11,90.68v6.87H652.9v103H642.6v-103H628.39V90.68Z"/>
  </g>
</svg>
