<?xml version="1.0" encoding="UTF-8" standalone="no"?>
<svg
   width="40px"
   height="40px"
   viewBox="0 0 40 40"
   version="1.1"
   id="svg14"
   sodipodi:docname="i3-white-40x40.svg"
   inkscape:version="1.3.2 (091e20ef0f, 2023-11-25)"
   xmlns:inkscape="http://www.inkscape.org/namespaces/inkscape"
   xmlns:sodipodi="http://sodipodi.sourceforge.net/DTD/sodipodi-0.dtd"
   xmlns="http://www.w3.org/2000/svg"
   xmlns:svg="http://www.w3.org/2000/svg">
  <defs
     id="defs14" />
  <sodipodi:namedview
     id="namedview14"
     pagecolor="#505050"
     bordercolor="#eeeeee"
     borderopacity="1"
     inkscape:showpageshadow="0"
     inkscape:pageopacity="0"
     inkscape:pagecheckerboard="0"
     inkscape:deskcolor="#505050"
     inkscape:zoom="21.85"
     inkscape:cx="19.977117"
     inkscape:cy="25.858124"
     inkscape:window-width="1920"
     inkscape:window-height="1042"
     inkscape:window-x="0"
     inkscape:window-y="0"
     inkscape:window-maximized="1"
     inkscape:current-layer="svg14" />
  <path
     style="fill:#ffffff;fill-opacity:1;fill-rule:nonzero;stroke:none"
     d="m 21.496094,6.433594 c -0.421875,0.140625 -0.761719,0.464844 -0.90625,0.871094 -0.199219,0.542968 0.07422,1.1875 0.613281,1.449218 0.1875,0.09375 0.261719,0.109375 0.542969,0.109375 0.273437,0 0.355468,-0.015625 0.535156,-0.105469 C 22.710938,8.550781 23.121094,7.996094 23.179688,7.546875 23.21875,7.277344 23.128906,6.988281 22.9375,6.769531 22.617188,6.410156 22,6.261719 21.496094,6.433594 Z m 0,0"
     id="path1" />
  <path
     style="fill:#ffffff;fill-opacity:1;fill-rule:nonzero;stroke:none"
     d="m 5.269531,9.976562 c -0.195312,0.191407 0.113281,0.984376 0.894531,2.292969 1.023438,1.710938 4.34375,6.386719 5.105469,7.183594 0.65625,0.683594 1.464844,1.777344 2.277344,3.078125 0.359375,0.582031 0.398437,0.664062 0.394531,0.8125 -0.0039,0.125 0.0078,0.167969 0.07813,0.214844 0.113281,0.08203 0.15625,0.07813 0.125,-0.0078 -0.05469,-0.1875 0.195313,-0.476562 0.753907,-0.847656 0.394531,-0.265625 0.597656,-0.339844 0.742187,-0.277344 0.08594,0.04297 0.09375,0.03906 0.09375,-0.04687 0,-0.121094 -0.09375,-0.210937 -0.226563,-0.210937 -0.08594,0 -0.179687,-0.08984 -0.542968,-0.507813 -1.121094,-1.289062 -1.984375,-2.464844 -2.433594,-3.304687 -0.25,-0.46875 -2.246094,-3.152344 -3.75,-5.03125 C 7.804688,12.097656 7.210938,11.417969 6.570312,10.777344 5.824219,10.035156 5.441406,9.800781 5.269531,9.976562 Z m 0,0"
     id="path2" />
  <path
     style="fill:#ffffff;fill-opacity:1;fill-rule:nonzero;stroke:none"
     d="m 21.285156,9.976562 c -0.230468,0.101563 -0.515625,0.34375 -0.808594,0.695313 -0.378906,0.449219 -0.621093,0.800781 -1.621093,2.34375 -0.984375,1.515625 -1.363281,2.070313 -1.800781,2.613281 -0.613282,0.769532 -1.105469,1.203125 -1.644532,1.460938 -0.300781,0.140625 -0.363281,0.214844 -0.363281,0.40625 0,0.160156 0.05469,0.257812 0.191406,0.324218 0.160157,0.08594 0.242188,0.07422 0.507813,-0.05859 0.597656,-0.304688 1.09375,-0.6875 1.734375,-1.339844 0.664062,-0.6875 1.070312,-1.203125 1.78125,-2.285156 0.230469,-0.347657 0.417969,-0.609375 0.417969,-0.585938 0,0.02344 -0.04297,0.210938 -0.09375,0.414063 -0.28125,1.128906 -0.410157,1.898437 -0.410157,2.492187 -0.0039,0.667969 0.121094,1.011719 0.433594,1.222657 0.144531,0.09766 0.1875,0.105468 0.542969,0.105468 0.328125,0 0.4375,-0.01953 0.714844,-0.113281 0.679687,-0.234375 1.582031,-0.714844 2.714843,-1.449219 1.785157,-1.15625 2.605469,-1.601562 3.632813,-1.957031 0.570312,-0.199219 1.070312,-0.296875 1.53125,-0.296875 0.503906,0 0.765625,0.07422 0.984375,0.289062 0.410156,0.394532 0.292969,1.066407 -0.324219,1.886719 -0.78125,1.035157 -2.246094,1.96875 -4.109375,2.605469 -0.699219,0.242188 -0.828125,0.3125 -1,0.511719 -0.207031,0.246093 -0.230469,0.523437 -0.05469,0.773437 0.148437,0.210938 0.199218,0.21875 1.355468,0.21875 1.207032,0 1.894532,0.05859 2.5625,0.226563 1.121094,0.28125 1.769532,0.738281 1.96875,1.375 0.09375,0.292969 0.09766,0.488281 0.01953,0.789062 -0.128907,0.492188 -0.34375,0.839844 -0.839844,1.351563 -1.824219,1.894531 -5.554688,3.058594 -9.226563,2.882812 -0.675781,-0.03516 -1.519531,-0.117187 -2.125,-0.214844 l -0.136719,-0.01953 0.160157,0.07422 c 0.207031,0.09766 1.082031,0.359375 1.582031,0.480469 2.351562,0.550781 4.835938,0.460937 7.179688,-0.253907 1.367187,-0.417968 2.816406,-1.164062 3.769531,-1.933593 0.375,-0.300781 1.007812,-0.960938 1.238281,-1.277344 0.542969,-0.765625 0.757812,-1.625 0.582031,-2.304687 C 32.023438,20.25 30.464844,19.34375 28.195312,19.027344 c -0.546874,-0.07422 -0.5625,-0.04687 0.214844,-0.4375 1.195313,-0.597656 1.894532,-1.074219 2.585938,-1.761719 0.648437,-0.648437 0.980468,-1.207031 1.109375,-1.875 0.332031,-1.691406 -1.421875,-2.929687 -3.753907,-2.648437 -0.910156,0.105468 -1.726562,0.359374 -2.683593,0.832031 -0.871094,0.425781 -1.609375,0.933593 -2.679688,1.832031 -0.730469,0.617188 -1.214843,0.976562 -1.429687,1.0625 -0.160156,0.05859 -0.167969,0.05859 -0.21875,-0.0078 -0.117188,-0.160157 -0.03516,-0.652344 0.367187,-2.066407 0.324219,-1.148437 0.511719,-1.894531 0.578125,-2.28125 0.0625,-0.390625 0.0625,-0.9375 0,-1.15625 -0.05859,-0.203125 -0.261718,-0.460937 -0.429687,-0.546875 -0.136719,-0.070312 -0.398438,-0.070312 -0.570313,0.00391 z m 0,0"
     id="path3" />
  <path
     style="fill:#ffffff;fill-opacity:1;fill-rule:nonzero;stroke:none"
     d="m 15.105469,22.875 c -0.40625,0.246094 -0.660157,0.519531 -0.621094,0.671875 0.01172,0.03516 0.289063,0.535156 0.621094,1.105469 l 0.605469,1.03125 0.308593,0.105468 c 0.339844,0.109376 0.769531,0.316407 1.152344,0.550782 l 0.246094,0.152344 -0.472657,-0.640626 c -0.460937,-0.617187 -0.480468,-0.640624 -0.621093,-0.652343 -0.1875,-0.01563 -0.199219,-0.02734 -0.476563,-0.417969 -0.261718,-0.359375 -0.292968,-0.492188 -0.152344,-0.644531 0.105469,-0.109375 0.25,-0.121094 0.378907,-0.03125 0.04687,0.03125 0.191406,0.203125 0.320312,0.375 0.222657,0.296875 0.230469,0.3125 0.210938,0.492187 l -0.02344,0.183594 0.460938,0.621094 c 0.253906,0.339844 0.453125,0.578125 0.4375,0.523437 -0.117188,-0.449219 -0.183594,-0.855469 -0.203125,-1.261719 l -0.02344,-0.480468 -0.824218,-0.898438 C 15.472656,22.621094 15.496094,22.636719 15.105469,22.875 Z m 0,0"
     id="path4" />
  <path
     style="fill:#ffffff;fill-opacity:1;fill-rule:nonzero;stroke:none"
     d="m 22.453125,28.925781 c -0.01953,0.0078 -0.08203,0.01953 -0.144531,0.03125 -0.136719,0.03125 -0.410156,0.28125 -0.476563,0.433594 -0.160156,0.390625 0.117188,0.675781 0.539063,0.546875 0.453125,-0.132812 0.714844,-0.636719 0.460937,-0.894531 -0.05469,-0.05469 -0.121093,-0.101563 -0.144531,-0.101563 -0.02344,0 -0.07813,-0.0039 -0.117188,-0.01563 -0.04297,-0.0078 -0.09375,-0.0078 -0.117187,0 z m 0,0"
     id="path5" />
  <path
     style="fill:#ffffff;fill-opacity:1;fill-rule:nonzero;stroke:none"
     d="m 11.734375,29.058594 c -0.601563,0.02734 -1.441406,0.101562 -1.46875,0.132812 -0.0078,0.01172 0.04687,0.08203 0.125,0.160156 0.28125,0.285157 0.304687,0.414063 0.195313,0.949219 -0.152344,0.753907 -0.621094,2.410157 -0.726563,2.570313 -0.027344,0.04297 -0.207031,0.1875 -0.398437,0.316406 -0.191407,0.132812 -0.347657,0.253906 -0.347657,0.269531 0,0.05469 0.1875,0.113281 0.425781,0.140625 0.332032,0.03125 1.949219,-0.132812 2.035157,-0.210937 0.01563,-0.01563 -0.03906,-0.06641 -0.117188,-0.121094 -0.07813,-0.05078 -0.175781,-0.15625 -0.210937,-0.238281 -0.06641,-0.125 -0.07031,-0.171875 -0.02734,-0.421875 0.109375,-0.644531 0.636719,-2.59375 0.761719,-2.785157 0.03516,-0.05859 0.222656,-0.246093 0.417969,-0.417968 0.195312,-0.171875 0.351562,-0.316406 0.34375,-0.324219 -0.04297,-0.03516 -0.484376,-0.04297 -1.007813,-0.01953 z m 0,0"
     id="path6" />
  <path
     style="fill:#ffffff;fill-opacity:1;fill-rule:nonzero;stroke:none"
     d="m 19.539062,29.636719 -0.234374,0.07422 v 0.21875 c 0.0039,0.121093 -0.01953,0.320312 -0.04297,0.4375 -0.05469,0.242187 -0.0625,0.25 -0.425781,0.230468 -0.113282,-0.0078 -0.144532,0.01172 -0.226563,0.132813 -0.05469,0.08984 -0.09375,0.207031 -0.09375,0.296875 -0.0039,0.132812 0.0078,0.152344 0.109375,0.183594 0.06641,0.01953 0.171875,0.02734 0.242188,0.01562 0.06641,-0.01172 0.121093,-0.0039 0.121093,0.01953 0,0.01563 -0.09375,0.347656 -0.214843,0.730468 -0.304688,1.003907 -0.296876,1.25 0.03516,1.5 0.140625,0.101563 0.628906,0.128907 0.910156,0.05078 0.355469,-0.105469 0.539062,-0.355469 0.476562,-0.644532 -0.01953,-0.09375 -0.04297,-0.109374 -0.08984,-0.08984 -0.03516,0.01563 -0.140625,0.03125 -0.234375,0.03125 -0.222656,0.0039 -0.28125,-0.08984 -0.246094,-0.394531 0.03125,-0.277344 0.300781,-1.191407 0.367188,-1.234376 0.02734,-0.01953 0.203124,-0.03125 0.394531,-0.02344 l 0.34375,0.01172 0.125,-0.1875 c 0.152343,-0.226563 0.164062,-0.394532 0.03516,-0.441406 -0.04687,-0.01953 -0.230469,-0.02734 -0.402344,-0.01563 -0.175781,0.01172 -0.3125,0.0078 -0.3125,-0.01172 0,-0.01953 0.04297,-0.167969 0.09766,-0.332032 0.113281,-0.359374 0.117187,-0.464843 0.01562,-0.5625 -0.09766,-0.101562 -0.425781,-0.101562 -0.75,0.0039 z m 0,0"
     id="path7" />
  <path
     style="fill:#ffffff;fill-opacity:1;fill-rule:nonzero;stroke:none"
     d="m 23.902344,29.636719 -0.234375,0.07422 0.01953,0.148437 c 0.02344,0.152344 -0.04687,0.597656 -0.105469,0.6875 -0.01953,0.03125 -0.113281,0.05078 -0.265625,0.05469 -0.230468,0 -0.242187,0.0039 -0.332031,0.136719 -0.105469,0.164063 -0.148437,0.34375 -0.09375,0.425781 0.02734,0.03906 0.105469,0.05859 0.265625,0.05859 0.136719,0 0.21875,0.01563 0.210938,0.03516 -0.0039,0.01953 -0.09766,0.332032 -0.207032,0.691407 -0.320312,1.054687 -0.300781,1.378906 0.105469,1.558593 0.144531,0.0625 0.234375,0.07422 0.503906,0.05859 0.523438,-0.02344 0.808594,-0.226562 0.808594,-0.566406 0,-0.1875 -0.04687,-0.246094 -0.144531,-0.195312 -0.117188,0.06641 -0.296875,0.05078 -0.363282,-0.02344 -0.128906,-0.140625 -0.07812,-0.472656 0.1875,-1.339844 0.07031,-0.21875 0.08203,-0.238281 0.203126,-0.261718 0.06641,-0.01563 0.242187,-0.01563 0.382812,-0.0039 l 0.253906,0.01953 0.105469,-0.148437 c 0.144531,-0.203125 0.1875,-0.359375 0.121094,-0.445313 -0.04297,-0.0625 -0.09766,-0.07031 -0.417969,-0.05859 -0.199219,0.0078 -0.367188,0.0039 -0.367188,-0.0039 0,-0.0078 0.04297,-0.140624 0.09766,-0.292968 0.121093,-0.359375 0.125,-0.546875 0.01172,-0.628906 -0.121094,-0.08594 -0.453126,-0.07813 -0.746094,0.01953 z m 0,0"
     id="path8" />
  <path
     style="fill:#ffffff;fill-opacity:1;fill-rule:nonzero;stroke:none"
     d="m 30.21875,29.636719 -0.234375,0.07422 0.01953,0.148437 c 0.02344,0.152344 -0.04687,0.597656 -0.101562,0.6875 -0.01953,0.03125 -0.117188,0.05078 -0.269532,0.05469 -0.230468,0 -0.242187,0.0039 -0.328124,0.136719 -0.109376,0.164063 -0.152344,0.34375 -0.09766,0.425781 0.02734,0.03906 0.109375,0.05859 0.265625,0.05859 0.136719,0 0.222656,0.01563 0.214844,0.03516 -0.0078,0.01953 -0.101562,0.332032 -0.210938,0.691407 -0.320312,1.054687 -0.300781,1.378906 0.105469,1.558593 0.144531,0.0625 0.234375,0.07422 0.507813,0.05859 0.519531,-0.02344 0.804687,-0.226562 0.804687,-0.566406 0,-0.1875 -0.04297,-0.246094 -0.144531,-0.195312 -0.117188,0.06641 -0.292969,0.05078 -0.363281,-0.02344 -0.09375,-0.101562 -0.08203,-0.386719 0.02734,-0.773438 0.230469,-0.839843 0.214844,-0.800781 0.359376,-0.828124 0.07422,-0.01563 0.25,-0.01563 0.386718,-0.0039 l 0.257813,0.01953 0.121093,-0.175781 c 0.152344,-0.226562 0.164063,-0.414062 0.03516,-0.464843 -0.05078,-0.01953 -0.234375,-0.02734 -0.402344,-0.01563 -0.171875,0.01172 -0.3125,0.01563 -0.3125,0.0039 0,-0.0078 0.03906,-0.144531 0.09375,-0.296875 0.121094,-0.359375 0.125,-0.546875 0.01172,-0.628906 -0.117188,-0.08594 -0.453125,-0.07813 -0.746094,0.01953 z m 0,0"
     id="path9" />
  <path
     style="fill:#ffffff;fill-opacity:1;fill-rule:nonzero;stroke:none"
     d="m 17.46875,30.417969 c -0.289062,0.07813 -0.640625,0.265625 -0.839844,0.449219 -0.253906,0.230468 -0.363281,0.445312 -0.386718,0.742187 l -0.01953,0.25 0.371094,0.355469 c 0.203125,0.195312 0.367188,0.382812 0.367188,0.417968 0,0.257813 -0.402344,0.375 -0.769532,0.226563 -0.15625,-0.0625 -0.160156,-0.0625 -0.234375,0.03125 -0.199219,0.253906 -0.253906,0.515625 -0.132812,0.636719 0.08203,0.08203 0.546875,0.113281 0.828125,0.05078 0.621094,-0.132813 1.1875,-0.65625 1.195312,-1.105469 0.0039,-0.203125 -0.08203,-0.351562 -0.414062,-0.703125 -0.320313,-0.339843 -0.347656,-0.429687 -0.167969,-0.582031 0.136719,-0.117188 0.332031,-0.15625 0.527344,-0.121094 0.257812,0.04687 0.285156,0.04297 0.398437,-0.101562 0.07813,-0.09375 0.125,-0.199219 0.136719,-0.308594 0.01953,-0.164062 0.01563,-0.175781 -0.09766,-0.234375 -0.144531,-0.07813 -0.488281,-0.07813 -0.761719,-0.0039 z m 0,0"
     id="path10" />
  <path
     style="fill:#ffffff;fill-opacity:1;fill-rule:nonzero;stroke:none"
     d="m 12.726562,30.4375 -0.121093,0.03906 -0.01953,0.351563 c -0.02344,0.371094 -0.144532,0.867187 -0.410157,1.714844 -0.203125,0.648437 -0.226562,0.808593 -0.121093,0.914062 0.128906,0.125 0.589843,0.105469 0.960937,-0.03906 0.09375,-0.03516 0.09766,-0.05078 0.101563,-0.351563 0.0078,-0.308594 0.101562,-0.777344 0.292968,-1.40625 0.08594,-0.277344 0.09375,-0.289062 0.277344,-0.378906 0.136719,-0.06641 0.253906,-0.09375 0.433594,-0.09375 0.210937,-0.0039 0.25,0.0078 0.320312,0.08984 0.117188,0.148437 0.07813,0.539062 -0.136718,1.265625 -0.277344,0.929687 -0.25,1.015625 0.289062,0.988281 0.175781,-0.01172 0.386719,-0.04687 0.472656,-0.07422 l 0.152344,-0.05469 0.02344,-0.34375 c 0.01562,-0.203125 0.08984,-0.609375 0.183593,-0.976563 0.222657,-0.878906 0.214844,-1.289062 -0.02734,-1.503906 -0.300782,-0.269531 -1.058594,-0.226563 -1.550782,0.08984 -0.09766,0.05859 -0.1875,0.113281 -0.199218,0.113281 -0.0078,0 -0.02344,-0.05078 -0.03906,-0.109375 -0.04297,-0.195313 -0.144531,-0.253906 -0.472656,-0.261719 -0.160157,-0.0039 -0.347657,0.0078 -0.410157,0.02734 z m 0,0"
     id="path11" />
  <path
     style="fill:#ffffff;fill-opacity:1;fill-rule:nonzero;stroke:none"
     d="m 26.167969,30.441406 c -0.109375,0.01563 -0.253907,0.05469 -0.324219,0.08203 -0.128906,0.05859 -0.128906,0.05859 -0.140625,0.339843 -0.0078,0.304688 -0.02734,0.394531 -0.246094,1.195313 -0.234375,0.839844 -0.199219,1.214844 0.128907,1.433594 0.140624,0.09375 0.1875,0.101562 0.519531,0.101562 0.335937,0 0.390625,-0.01172 0.621093,-0.117188 0.140626,-0.07031 0.324219,-0.1875 0.414063,-0.265624 l 0.15625,-0.140626 v 0.171876 c 0,0.269531 0.08594,0.320312 0.480469,0.296874 0.08203,-0.0039 0.242187,-0.04297 0.355468,-0.08594 l 0.199219,-0.07422 v -0.22265 c 0,-0.308594 0.07813,-0.699219 0.324219,-1.589844 0.113281,-0.421875 0.210938,-0.8125 0.210938,-0.867187 0,-0.05469 -0.03516,-0.140625 -0.07422,-0.191407 -0.05859,-0.07422 -0.105469,-0.08984 -0.296875,-0.08594 -0.125,0 -0.34375,0.03906 -0.492188,0.08203 l -0.265625,0.08203 -0.0039,0.335937 c -0.0078,0.316406 -0.101563,0.839844 -0.230469,1.300781 -0.125,0.4375 -0.773437,0.75 -1.03125,0.492188 -0.152344,-0.148438 -0.117187,-0.410156 0.167969,-1.363282 0.15625,-0.503906 0.1875,-0.730468 0.128906,-0.832031 -0.03516,-0.04687 -0.257812,-0.125 -0.351562,-0.117187 -0.03125,0.0039 -0.148438,0.01953 -0.25,0.03906 z m 0,0"
     id="path12" />
  <path
     style="fill:#ffffff;fill-opacity:1;fill-rule:nonzero;stroke:none"
     d="m 33.144531,30.457031 c -0.335937,0.08984 -0.609375,0.253907 -0.898437,0.527344 -0.226563,0.214844 -0.3125,0.332031 -0.429688,0.578125 -0.332031,0.691406 -0.3125,1.292969 0.04687,1.660156 0.238281,0.242188 0.484375,0.324219 1.042969,0.34375 0.675781,0.02344 1.09375,-0.09766 1.257812,-0.378906 0.109376,-0.179688 0.04297,-0.523438 -0.08594,-0.476562 -0.03516,0.01172 -0.15625,0.05469 -0.273437,0.09375 -0.292969,0.113281 -0.796876,0.113281 -1.015626,0.0039 -0.21875,-0.105469 -0.339843,-0.355469 -0.261718,-0.550782 0.02344,-0.05078 0.08594,-0.05859 0.527344,-0.03906 0.53125,0.02734 1.023437,-0.01563 1.265624,-0.117188 0.347657,-0.144531 0.539063,-0.472656 0.511719,-0.898437 -0.01563,-0.328125 -0.136719,-0.519531 -0.425781,-0.675781 -0.183594,-0.09766 -0.234375,-0.109375 -0.640625,-0.117188 -0.28125,-0.0039 -0.503906,0.01172 -0.621094,0.04687 z m 0.582031,0.609375 c 0.125,0.06641 0.15625,0.128906 0.15625,0.324219 0,0.1875 -0.06641,0.265625 -0.25,0.308594 -0.203124,0.05078 -0.898437,0.0039 -0.898437,-0.05469 0,-0.02344 0.05078,-0.125 0.109375,-0.21875 0.222656,-0.351562 0.601562,-0.503906 0.882812,-0.359375 z m 0,0"
     id="path13" />
  <path
     style="fill:#ffffff;fill-opacity:1;fill-rule:nonzero;stroke:none"
     d="m 21.632812,30.503906 -0.210937,0.07031 -0.02734,0.339843 c -0.02344,0.363282 -0.132812,0.820313 -0.375,1.648438 -0.207031,0.695312 -0.222656,0.792969 -0.117187,0.898438 0.08203,0.08203 0.113281,0.08594 0.417968,0.07031 0.1875,-0.01172 0.398438,-0.04687 0.496094,-0.08984 L 21.976562,33.375 v -0.265625 c 0,-0.339844 0.07031,-0.683594 0.328126,-1.542969 0.300781,-1.027344 0.289062,-1.132812 -0.199219,-1.125 -0.144531,0 -0.359375,0.03125 -0.472657,0.0625 z m 0,0"
     id="path14" />
</svg>
