<svg version="1.1" id="Layer_1" xmlns:x="ns_extend;" xmlns:i="ns_ai;" xmlns:graph="ns_graphs;" xmlns="http://www.w3.org/2000/svg" xmlns:xlink="http://www.w3.org/1999/xlink" x="0px" y="0px" viewBox="0 0 449.1 83" style="enable-background:new 0 0 449.1 83;" xml:space="preserve">
 <style type="text/css">
  .st0{fill:#FFFFFF;}
 </style>
 <metadata>
  <sfw xmlns="ns_sfw;">
   <slices>
   </slices>
   <sliceSourceBounds bottomLeftOrigin="true" height="83" width="449.1" x="-24.5" y="-211.9">
   </sliceSourceBounds>
  </sfw>
 </metadata>
 <g>
  <path class="st0" d="M59.5,38.2c0,13.7-8.2,28.5-29.6,28.5C14.3,66.7,0,58.2,0,38.2C0,21.7,10.7,8.9,31.9,10
		C54.5,11.3,59.5,28.3,59.5,38.2z M19.3,27.8c-2,3-2.8,6.7-2.8,10.4c0,8.3,4.3,15.9,13.3,15.9c8.9,0,13.2-7,13.2-15.2
		c0-5.9-1.5-10.4-4.6-13.2c-3.3-3-7.2-3.1-9.6-3C24.3,23,21.5,24.5,19.3,27.8z M204.5,16.1c1.7-1.7,2.6-3,5.6-4.3
		c2.6-1.1,6.1-1.9,10.2-1.9c3.3,0,7,0.6,9.8,2c5.7,3,7.4,7.8,7.4,16.3v37.1H221V34.8c0-4.8-0.2-6.7-0.7-8.2c-1.3-3-4.1-4.1-7.4-4.1
		c-8.5,0-8.5,6.7-8.5,13.5v29.3H188V11.3h16.5L204.5,16.1z M180.3,51.3c-1.5,3.1-6.3,15.4-27.6,15.4c-16.5,0-28-9.8-28-27.6
		c0-13,6.7-29.1,28.5-29.1c3.3,0,12.8-0.4,20,7c7.2,7.6,7.6,18.2,7.8,24.3h-39.8c0,6.7,3.9,13.5,12.8,13.5c8.9,0,12-5.7,14.1-9.4
		L180.3,51.3z M164,31.3c-0.4-2.2-0.7-5.4-3.1-7.6c-2-2-5.2-3-8-3c-3.9,0-6.7,1.9-8.3,3.5c-2.2,2.4-2.8,4.8-3.3,7.2L164,31.3z
		 M407.6,22.6h10.7V11.5h-10.7V0h-16.3v11.3h-2.6l-7.4,11.1h10v25.8c0,5.2,0.2,9.1,2.4,12.2c3.5,5,9.6,5.4,15.4,5.4
		c3,0,5.2-0.4,8.5-0.9V52.4l-5.7,0.2c-4.4,0-4.4-2.8-4.3-6.1V22.6z M245.3,0h16.3v11.3h16.9L271,22.4h-9.6v24.1
		c-0.2,3.3-0.2,6.1,4.3,6.1l5.7-0.2v12.4c-3.5,0.6-5.6,0.9-8.5,0.9c-5.6,0-11.9-0.4-15.4-5.4c-2.2-3.1-2.4-7-2.4-12.2V0L245.3,0z
		 M433.3,22.6h-2V13h-3.7v-1.7h9.3V13h-3.7v9.6H433.3z M449.1,22.6h-2v-6.9l0.2-2.2l-0.6,1.9l-2.4,7.4h-1.9l-2.4-7.4l-0.6-1.9
		l0.2,2.2v6.9h-1.9V11.5h2.8l2.8,8.9l2.8-8.9h2.8v11.1H449.1z">
  </path>
  <path class="st0" d="M329.6,51.3l-3.1,4.6c-3,4.1-8.3,10.6-24.1,10.6c-16.5,0-27.4-9.8-27.4-27.6c0-13,6.7-29.1,28.5-29.1
		c3.3,0,12.8-0.4,20,7c7.2,7.6,7.6,18.2,7.8,24.3h-39.6c-0.2,6.7,3.3,13.5,12,13.5c8.9,0,11.5-5.7,13.5-9.4L329.6,51.3z M314.4,31.3
		c-0.4-2.2-0.7-5.4-3.1-7.6c-2-2-5.2-3-8-3c-3.9,0-6.7,1.9-8.3,3.5c-2.2,2.4-2.8,4.8-3.3,7.2L314.4,31.3z">
  </path>
  <path class="st0" d="M385.4,65.4L365,37.1l16.9-25.6h-18.5l-8,12l-8.7-12h-18.5l18.3,25.6l-18.9,28.3h18.5l9.8-15l10.7,15H385.4z
		 M81.9,16.1c1.5-2.4,6.5-6.1,14.5-6.1c13.5,0,23.2,10,23.2,28c0,11.1-4.1,28.5-23.9,28.5c-7,0-12.6-3.9-13.9-6.1V83H65.4V11.3h16.5
		V16.1z M93,22.4c-3,0-6.1,1.1-8.3,4.1c-2.4,2.8-3.3,7-3.3,11.9c0,6.3,1.9,10.2,3.9,12.4c1.9,2,4.6,3.3,7.4,3.3
		c8,0,11.5-8.2,11.5-16.1c0-6.7-2-13.7-8.7-15.2C94.5,22.6,93.7,22.4,93,22.4z">
  </path>
 </g>
</svg>